<svg id="Capa_2" data-name="Capa 2" xmlns="http://www.w3.org/2000/svg" viewBox="0 0 868.65 644.5"><defs><style>.cls-1{fill:none;stroke:#1555a3;stroke-linecap:round;stroke-miterlimit:10;stroke-width:6px;}</style></defs><path class="cls-1" d="M271.1,254h0l-3.61-24.58a10.06,10.06,0,0,0-10-8.62h-16a10.1,10.1,0,0,0-10,8.93l-2.81,24.43" transform="translate(-105.68 -217.75)"/><path class="cls-1" d="M309.55,269.64l19.32-15.33a10.09,10.09,0,0,1,13.39.77l11.29,11.28a10.09,10.09,0,0,1,1,13.15L339.7,299.44" transform="translate(-105.68 -217.75)"/><path class="cls-1" d="M356,381.15l27.28-4a10.07,10.07,0,0,0,8.62-10v-16a10.05,10.05,0,0,0-8.92-10l-27-3.13" transform="translate(-105.68 -217.75)"/><path class="cls-1" d="M159.66,301.3a11,11,0,0,1-1.29-1.42l-15-20.19a10,10,0,0,1,1-13.14l11.28-11.29a10.12,10.12,0,0,1,13.41-.77l19.61,15.57a7.39,7.39,0,0,1,.78.69" transform="translate(-105.68 -217.75)"/><path class="cls-1" d="M144.56,338.51l-27,3.11a10.07,10.07,0,0,0-8.92,10v15.95a10.05,10.05,0,0,0,8.62,10l27.36,4" transform="translate(-105.68 -217.75)"/><path class="cls-1" d="M160.17,419l-17.69,22.31a10.11,10.11,0,0,0,.76,13.41L154.53,466a10.09,10.09,0,0,0,13.15,1l23.14-17.21" transform="translate(-105.68 -217.75)"/><path class="cls-1" d="M271.52,465.54l-4,27.26a10.1,10.1,0,0,1-10,8.62H241.57a10.08,10.08,0,0,1-10-8.93l-3.13-27.07" transform="translate(-105.68 -217.75)"/><path class="cls-1" d="M340.55,418.89l14.88,20a11.74,11.74,0,0,1-1.13,15.31L344,464.49a10.07,10.07,0,0,1-13.39.76L310.51,449.3" transform="translate(-105.68 -217.75)"/><path class="cls-1" d="M271.52,465.54a107.46,107.46,0,0,0,39-16.24" transform="translate(-105.68 -217.75)"/><path class="cls-1" d="M189.42,270.75a107.23,107.23,0,0,1,39.28-16.64" transform="translate(-105.68 -217.75)"/><path class="cls-1" d="M339.7,299.44A107.46,107.46,0,0,1,356,338.07" transform="translate(-105.68 -217.75)"/><path class="cls-1" d="M271.08,254h0a107.18,107.18,0,0,1,38.45,15.69" transform="translate(-105.68 -217.75)"/><path class="cls-1" d="M340.55,418.89A107.34,107.34,0,0,0,356,381.15" transform="translate(-105.68 -217.75)"/><path class="cls-1" d="M228.42,465.42c-3.19-.66-6.32-1.45-9.41-2.4a107.38,107.38,0,0,1-28.19-13.25" transform="translate(-105.68 -217.75)"/><path class="cls-1" d="M144.56,338.51a106.89,106.89,0,0,1,15.1-37.21" transform="translate(-105.68 -217.75)"/><path class="cls-1" d="M144.66,381.6A107,107,0,0,0,160.17,419" transform="translate(-105.68 -217.75)"/><path class="cls-1" d="M314.85,359.35c0,1.43,0,2.86-.14,4.3a65,65,0,0,1-59.55,60.47c-1.74.12-3.49.2-5.27.2a65,65,0,1,1,65-65Z" transform="translate(-105.68 -217.75)"/><circle class="cls-1" cx="144.2" cy="141.6" r="25.99"/><path class="cls-1" d="M255.16,424.12a65,65,0,0,0,59.55-60.47" transform="translate(-105.68 -217.75)"/><path class="cls-1" d="M355.44,438.9l-14.89-20A107.34,107.34,0,0,0,356,381.15l27.28-4a10.07,10.07,0,0,0,8.62-10v-8.68H876.1a95.23,95.23,0,0,1,95.22,95.22V728H250.45V501.42h7.07a10.1,10.1,0,0,0,10-8.62l4-27.26a107.46,107.46,0,0,0,39-16.24l20.13,15.95a10.07,10.07,0,0,0,13.39-.76" transform="translate(-105.68 -217.75)"/><path class="cls-1" d="M971.32,697.71v98.5a63,63,0,0,1-63,63H313.5a63,63,0,0,1-63.05-63v-98.5" transform="translate(-105.68 -217.75)"/><circle class="cls-1" cx="509.25" cy="573.86" r="21.2"/></svg>