<svg id="Capa_1" data-name="Capa 1" xmlns="http://www.w3.org/2000/svg" viewBox="0 0 471.65 671.84"><defs><style>.cls-1{fill:none;stroke:#3a6e2d;stroke-linecap:round;stroke-miterlimit:10;stroke-width:6px;}</style></defs><path class="cls-1" d="M74,597.89H397.7a71,71,0,0,1,71,71v0a0,0,0,0,1,0,0H3a0,0,0,0,1,0,0v0A71,71,0,0,1,74,597.89Z"/><path class="cls-1" d="M720.47,802.05V726.19a79.17,79.17,0,0,0-79.26-79.25h-23a81.18,81.18,0,0,0-10.28.66,79.26,79.26,0,0,0-69,78.59v75.86" transform="translate(-304.62 -204.16)"/><rect class="cls-1" x="293.09" y="457.18" width="229.36" height="59.4" rx="29.7" transform="translate(159.1 -349.89) rotate(45)"/><rect class="cls-1" x="557.42" y="242.17" width="158.44" height="59.4" rx="29.7" transform="translate(74.09 -574.7) rotate(45)"/><path class="cls-1" d="M483.58,520.69l92.77-92.77a61.42,61.42,0,0,0,0-86.87l-17-17a61.42,61.42,0,0,0-86.87,0l-92.77,92.77" transform="translate(-304.62 -204.16)"/><path class="cls-1" d="M583.77,419c36.67,37.39,89.59,112.44,93.56,236.66h0" transform="translate(-304.62 -204.16)"/><path class="cls-1" d="M530.71,473.68c28.87,29.69,56.92,92.92,73.89,174.41" transform="translate(-304.62 -204.16)"/><line class="cls-1" x1="331.7" y1="109.38" x2="284.83" y2="156.25"/><line class="cls-1" x1="289.7" y1="67.39" x2="245.07" y2="112.02"/></svg>