<svg id="Capa_3" data-name="Capa 3" xmlns="http://www.w3.org/2000/svg" viewBox="0 0 455.07 676"><defs><style>.cls-1{fill:none;stroke:#f9b10d;stroke-linecap:round;stroke-miterlimit:10;stroke-width:6px;}</style></defs><path class="cls-1" d="M564,375.8h0l-3.52-24a9.81,9.81,0,0,0-9.71-8.41H535.12a9.87,9.87,0,0,0-9.8,8.71L522.59,376" transform="translate(-312.47 -202)"/><path class="cls-1" d="M601.46,391.11l18.85-14.95a9.85,9.85,0,0,1,13.06.75l11,11a9.83,9.83,0,0,1,1,12.82l-14.46,19.45" transform="translate(-312.47 -202)"/><path class="cls-1" d="M646.82,499.9,673.43,496a9.82,9.82,0,0,0,8.41-9.73V470.67a9.8,9.8,0,0,0-8.71-9.75l-26.37-3.06" transform="translate(-312.47 -202)"/><path class="cls-1" d="M455.24,422a10.38,10.38,0,0,1-1.26-1.38l-14.64-19.7a9.81,9.81,0,0,1,.94-12.82l11-11a9.87,9.87,0,0,1,13.08-.74l19.12,15.18a8.61,8.61,0,0,1,.77.67" transform="translate(-312.47 -202)"/><path class="cls-1" d="M440.5,458.3l-26.3,3a9.82,9.82,0,0,0-8.7,9.77v15.56a9.82,9.82,0,0,0,8.41,9.73l26.69,3.94" transform="translate(-312.47 -202)"/><path class="cls-1" d="M455.73,536.84l-17.26,21.77a9.85,9.85,0,0,0,.75,13.08l11,11a9.84,9.84,0,0,0,12.83.93l22.57-16.79" transform="translate(-312.47 -202)"/><path class="cls-1" d="M564.36,582.22l-3.9,26.6a9.85,9.85,0,0,1-9.76,8.41H535.14a9.83,9.83,0,0,1-9.77-8.71l-3-26.41" transform="translate(-312.47 -202)"/><path class="cls-1" d="M631.71,536.72l14.51,19.52a11.45,11.45,0,0,1-1.1,14.93l-10,10A9.82,9.82,0,0,1,622,582l-19.64-15.56" transform="translate(-312.47 -202)"/><path class="cls-1" d="M564.36,582.22a104.73,104.73,0,0,0,38-15.83" transform="translate(-312.47 -202)"/><path class="cls-1" d="M484.27,392.19A104.67,104.67,0,0,1,522.59,376" transform="translate(-312.47 -202)"/><path class="cls-1" d="M630.87,420.19a104.63,104.63,0,0,1,15.88,37.68" transform="translate(-312.47 -202)"/><path class="cls-1" d="M563.93,375.8h0a104.77,104.77,0,0,1,37.51,15.31" transform="translate(-312.47 -202)"/><path class="cls-1" d="M631.71,536.72a104.67,104.67,0,0,0,15.11-36.82" transform="translate(-312.47 -202)"/><path class="cls-1" d="M522.31,582.11c-3.11-.65-6.16-1.42-9.18-2.34a105,105,0,0,1-27.5-12.93" transform="translate(-312.47 -202)"/><path class="cls-1" d="M440.5,458.3A104.3,104.3,0,0,1,455.24,422" transform="translate(-312.47 -202)"/><path class="cls-1" d="M440.6,500.34a104.41,104.41,0,0,0,15.13,36.5" transform="translate(-312.47 -202)"/><path class="cls-1" d="M606.63,478.63c0,1.4,0,2.79-.14,4.19a63.42,63.42,0,0,1-58.09,59c-1.69.12-3.41.2-5.14.2a63.38,63.38,0,1,1,63.37-63.39Z" transform="translate(-312.47 -202)"/><circle class="cls-1" cx="230.78" cy="276.64" r="25.35"/><path class="cls-1" d="M424.9,669.53v46.82a29.76,29.76,0,0,0,29.76,29.76H623.22A29.76,29.76,0,0,0,653,716.35v-37a25.71,25.71,0,0,1,6.3-16.87c23.37-26.91,103.81-126.91,105.24-229.34,1.66-119.86-69.92-231.4-233.06-228.07S300.05,361.56,318.36,466.43C335.94,567.11,424.9,649.55,424.9,669.53Z" transform="translate(-312.47 -202)"/><rect class="cls-1" x="119.39" y="574.8" width="213.99" height="34.17" rx="17.08"/><rect class="cls-1" x="119.39" y="638.83" width="213.99" height="34.17" rx="17.08"/></svg>